<mxfile host="app.diagrams.net" agent="Mozilla/5.0 (Windows NT 10.0; Win64; x64) AppleWebKit/537.36 (KHTML, like Gecko) Chrome/134.0.0.0 Safari/537.36" version="27.0.6" pages="2">
  <diagram name="Страница — 1" id="Oy06qOWnCH5pJBmnBr1O">
    <mxGraphModel dx="3804" dy="2775" grid="1" gridSize="10" guides="1" tooltips="1" connect="1" arrows="1" fold="1" page="1" pageScale="1" pageWidth="827" pageHeight="1169" math="0" shadow="0">
      <root>
        <mxCell id="0" />
        <mxCell id="1" parent="0" />
        <mxCell id="jY-5jK7i1B_0D9hz5LlO-2" value="Администратор" style="shape=umlActor;verticalLabelPosition=bottom;verticalAlign=top;html=1;outlineConnect=0;" parent="1" vertex="1">
          <mxGeometry x="2000" y="-90" width="30" height="60" as="geometry" />
        </mxCell>
        <mxCell id="jY-5jK7i1B_0D9hz5LlO-20" value="&lt;font style=&quot;vertical-align: inherit;&quot;&gt;&lt;font style=&quot;vertical-align: inherit;&quot;&gt;Изменение услуг&lt;/font&gt;&lt;/font&gt;" style="ellipse;whiteSpace=wrap;html=1;" parent="1" vertex="1">
          <mxGeometry x="1650" y="-120" width="130" height="60" as="geometry" />
        </mxCell>
        <mxCell id="jY-5jK7i1B_0D9hz5LlO-35" value="Клиент&lt;br&gt;" style="shape=umlActor;verticalLabelPosition=bottom;verticalAlign=top;html=1;outlineConnect=0;" parent="1" vertex="1">
          <mxGeometry x="2010" y="337.75" width="27" height="60" as="geometry" />
        </mxCell>
        <mxCell id="sptsj7nyR6xT8UWdYwcq-39" value="&lt;span style=&quot;color: rgba(0, 0, 0, 0); font-family: monospace; font-size: 0px; text-align: start; background-color: rgb(27, 29, 30);&quot;&gt;%3CmxGraphModel%3E%3Croot%3E%3CmxCell%20id%3D%220%22%2F%3E%3CmxCell%20id%3D%221%22%20parent%3D%220%22%2F%3E%3CmxCell%20id%3D%222%22%20value%3D%22%22%20style%3D%22endArrow%3Dnone%3Bhtml%3D1%3Brounded%3D0%3BexitX%3D0.5%3BexitY%3D1%3BexitDx%3D0%3BexitDy%3D0%3B%22%20edge%3D%221%22%20parent%3D%221%22%3E%3CmxGeometry%20width%3D%2250%22%20height%3D%2250%22%20relative%3D%221%22%20as%3D%22geometry%22%3E%3CmxPoint%20x%3D%221907%22%20y%3D%22225%22%20as%3D%22sourcePoint%22%2F%3E%3CmxPoint%20x%3D%222000%22%20y%3D%22320%22%20as%3D%22targetPoint%22%2F%3E%3C%2FmxGeometry%3E%3C%2FmxCell%3E%3C%2Froot%3E%3C%2FmxGraphModel%3E&lt;/span&gt;" style="endArrow=none;html=1;rounded=0;exitX=1;exitY=0.5;exitDx=0;exitDy=0;" parent="1" source="-4-l-uWwz1xhiP7CuUYI-1" edge="1">
          <mxGeometry width="50" height="50" relative="1" as="geometry">
            <mxPoint x="1920" y="290.13" as="sourcePoint" />
            <mxPoint x="1990" y="370" as="targetPoint" />
          </mxGeometry>
        </mxCell>
        <mxCell id="b1CO219NzaIOe3JNRqPo-3" value="&lt;font style=&quot;vertical-align: inherit;&quot;&gt;&lt;font style=&quot;vertical-align: inherit;&quot;&gt;Гость&lt;/font&gt;&lt;/font&gt;" style="shape=umlActor;verticalLabelPosition=bottom;verticalAlign=top;html=1;outlineConnect=0;" parent="1" vertex="1">
          <mxGeometry x="2030" y="810" width="27" height="60" as="geometry" />
        </mxCell>
        <mxCell id="b1CO219NzaIOe3JNRqPo-9" value="&lt;font style=&quot;vertical-align: inherit;&quot;&gt;&lt;font style=&quot;vertical-align: inherit;&quot;&gt;&lt;font style=&quot;vertical-align: inherit;&quot;&gt;&lt;font style=&quot;vertical-align: inherit;&quot;&gt;Сортировка мастеров&amp;nbsp;&lt;/font&gt;&lt;/font&gt;&lt;/font&gt;&lt;/font&gt;&lt;div&gt;&lt;font style=&quot;vertical-align: inherit;&quot;&gt;&lt;font style=&quot;vertical-align: inherit;&quot;&gt;&lt;font style=&quot;vertical-align: inherit;&quot;&gt;&lt;font style=&quot;vertical-align: inherit;&quot;&gt;по рейтингу&lt;/font&gt;&lt;/font&gt;&lt;/font&gt;&lt;/font&gt;&lt;/div&gt;" style="ellipse;whiteSpace=wrap;html=1;" parent="1" vertex="1">
          <mxGeometry x="2175" y="525" width="170" height="55" as="geometry" />
        </mxCell>
        <mxCell id="b1CO219NzaIOe3JNRqPo-10" value="" style="endArrow=none;html=1;rounded=0;exitX=0.5;exitY=0;exitDx=0;exitDy=0;" parent="1" source="b1CO219NzaIOe3JNRqPo-9" edge="1">
          <mxGeometry width="50" height="50" relative="1" as="geometry">
            <mxPoint x="2211" y="714.75" as="sourcePoint" />
            <mxPoint x="2080" y="430" as="targetPoint" />
          </mxGeometry>
        </mxCell>
        <mxCell id="dGz35D6ZcCfQ526eEBFx-14" value="&lt;font style=&quot;vertical-align: inherit;&quot;&gt;&lt;font style=&quot;vertical-align: inherit;&quot;&gt;&lt;font style=&quot;vertical-align: inherit;&quot;&gt;&lt;font style=&quot;vertical-align: inherit;&quot;&gt;Создание записи&amp;nbsp; &amp;nbsp;&amp;nbsp;&lt;/font&gt;&lt;/font&gt;&lt;/font&gt;&lt;/font&gt;&lt;div&gt;&lt;font style=&quot;vertical-align: inherit;&quot;&gt;&lt;font style=&quot;vertical-align: inherit;&quot;&gt;&lt;font style=&quot;vertical-align: inherit;&quot;&gt;&lt;font style=&quot;vertical-align: inherit;&quot;&gt;на услугу&lt;/font&gt;&lt;/font&gt;&lt;/font&gt;&lt;/font&gt;&lt;/div&gt;" style="ellipse;whiteSpace=wrap;html=1;" parent="1" vertex="1">
          <mxGeometry x="1674" y="230" width="130" height="60" as="geometry" />
        </mxCell>
        <mxCell id="dGz35D6ZcCfQ526eEBFx-24" value="" style="endArrow=none;html=1;rounded=0;exitX=1;exitY=1;exitDx=0;exitDy=0;" parent="1" source="dGz35D6ZcCfQ526eEBFx-14" edge="1">
          <mxGeometry width="50" height="50" relative="1" as="geometry">
            <mxPoint x="2149" y="188.75" as="sourcePoint" />
            <mxPoint x="2000" y="340" as="targetPoint" />
          </mxGeometry>
        </mxCell>
        <mxCell id="dGz35D6ZcCfQ526eEBFx-25" value="&lt;div&gt;Добавление&lt;/div&gt;&lt;div&gt;отзывов&lt;/div&gt;" style="ellipse;whiteSpace=wrap;html=1;" parent="1" vertex="1">
          <mxGeometry x="1960" y="150" width="130" height="60" as="geometry" />
        </mxCell>
        <mxCell id="dGz35D6ZcCfQ526eEBFx-32" value="" style="endArrow=none;html=1;rounded=0;exitX=0.5;exitY=1;exitDx=0;exitDy=0;" parent="1" source="dGz35D6ZcCfQ526eEBFx-25" edge="1">
          <mxGeometry width="50" height="50" relative="1" as="geometry">
            <mxPoint x="2105" y="588.75" as="sourcePoint" />
            <mxPoint x="2030" y="320" as="targetPoint" />
          </mxGeometry>
        </mxCell>
        <mxCell id="SDVWNfVXVD3PvBdz0h2N-19" value="&lt;font style=&quot;vertical-align: inherit;&quot;&gt;&lt;font style=&quot;vertical-align: inherit;&quot;&gt;&lt;font style=&quot;vertical-align: inherit;&quot;&gt;&lt;font style=&quot;vertical-align: inherit;&quot;&gt;Фильтрация услуг&amp;nbsp;&lt;/font&gt;&lt;/font&gt;&lt;/font&gt;&lt;/font&gt;&lt;div&gt;&lt;font style=&quot;vertical-align: inherit;&quot;&gt;&lt;font style=&quot;vertical-align: inherit;&quot;&gt;&lt;font style=&quot;vertical-align: inherit;&quot;&gt;&lt;font style=&quot;vertical-align: inherit;&quot;&gt;по цене&lt;/font&gt;&lt;/font&gt;&lt;/font&gt;&lt;/font&gt;&lt;/div&gt;" style="ellipse;whiteSpace=wrap;html=1;" parent="1" vertex="1">
          <mxGeometry x="2050" y="577.5" width="140" height="55" as="geometry" />
        </mxCell>
        <mxCell id="SDVWNfVXVD3PvBdz0h2N-20" value="" style="endArrow=none;html=1;rounded=0;exitX=0.5;exitY=0;exitDx=0;exitDy=0;" parent="1" source="SDVWNfVXVD3PvBdz0h2N-19" edge="1">
          <mxGeometry width="50" height="50" relative="1" as="geometry">
            <mxPoint x="2005" y="890" as="sourcePoint" />
            <mxPoint x="2050" y="440" as="targetPoint" />
          </mxGeometry>
        </mxCell>
        <mxCell id="SDVWNfVXVD3PvBdz0h2N-21" value="&amp;nbsp;" style="text;html=1;align=center;verticalAlign=middle;whiteSpace=wrap;rounded=0;" parent="1" vertex="1">
          <mxGeometry x="1332" y="-360" width="60" height="30" as="geometry" />
        </mxCell>
        <mxCell id="v9uNQchNWR2JUezid9-N-1" value="&amp;nbsp;" style="text;html=1;align=center;verticalAlign=middle;whiteSpace=wrap;rounded=0;" parent="1" vertex="1">
          <mxGeometry x="1274" y="-210" width="60" height="30" as="geometry" />
        </mxCell>
        <mxCell id="v9uNQchNWR2JUezid9-N-2" value="&amp;nbsp;" style="text;html=1;align=center;verticalAlign=middle;whiteSpace=wrap;rounded=0;" parent="1" vertex="1">
          <mxGeometry x="1284" y="900" width="60" height="30" as="geometry" />
        </mxCell>
        <mxCell id="v9uNQchNWR2JUezid9-N-3" value="&amp;nbsp;" style="text;html=1;align=center;verticalAlign=middle;whiteSpace=wrap;rounded=0;" parent="1" vertex="1">
          <mxGeometry x="-270" y="425.13" width="60" height="30" as="geometry" />
        </mxCell>
        <mxCell id="v9uNQchNWR2JUezid9-N-4" value="&amp;nbsp;" style="text;html=1;align=center;verticalAlign=middle;whiteSpace=wrap;rounded=0;" parent="1" vertex="1">
          <mxGeometry x="2780" y="342.75" width="60" height="30" as="geometry" />
        </mxCell>
        <mxCell id="-4-l-uWwz1xhiP7CuUYI-1" value="Изменение аккаунта" style="ellipse;whiteSpace=wrap;html=1;" vertex="1" parent="1">
          <mxGeometry x="1704.5" y="332.75" width="154" height="50" as="geometry" />
        </mxCell>
        <mxCell id="-4-l-uWwz1xhiP7CuUYI-3" value="&lt;span style=&quot;color: rgba(0, 0, 0, 0); font-family: monospace; font-size: 0px; text-align: start; background-color: rgb(27, 29, 30);&quot;&gt;%3CmxGraphModel%3E%3Croot%3E%3CmxCell%20id%3D%220%22%2F%3E%3CmxCell%20id%3D%221%22%20parent%3D%220%22%2F%3E%3CmxCell%20id%3D%222%22%20value%3D%22%22%20style%3D%22endArrow%3Dnone%3Bhtml%3D1%3Brounded%3D0%3BexitX%3D0.5%3BexitY%3D1%3BexitDx%3D0%3BexitDy%3D0%3B%22%20edge%3D%221%22%20parent%3D%221%22%3E%3CmxGeometry%20width%3D%2250%22%20height%3D%2250%22%20relative%3D%221%22%20as%3D%22geometry%22%3E%3CmxPoint%20x%3D%221907%22%20y%3D%22225%22%20as%3D%22sourcePoint%22%2F%3E%3CmxPoint%20x%3D%222000%22%20y%3D%22320%22%20as%3D%22targetPoint%22%2F%3E%3C%2FmxGeometry%3E%3C%2FmxCell%3E%3C%2Froot%3E%3C%2FmxGraphModel%3E&lt;/span&gt;" style="endArrow=none;html=1;rounded=0;exitX=1;exitY=0.5;exitDx=0;exitDy=0;" edge="1" parent="1" source="-4-l-uWwz1xhiP7CuUYI-8">
          <mxGeometry width="50" height="50" relative="1" as="geometry">
            <mxPoint x="2068" y="225" as="sourcePoint" />
            <mxPoint x="1980" y="420" as="targetPoint" />
          </mxGeometry>
        </mxCell>
        <mxCell id="-4-l-uWwz1xhiP7CuUYI-4" value="&lt;font style=&quot;vertical-align: inherit;&quot;&gt;&lt;font style=&quot;vertical-align: inherit;&quot;&gt;&lt;font style=&quot;vertical-align: inherit;&quot;&gt;&lt;font style=&quot;vertical-align: inherit;&quot;&gt;Отмена записи&lt;/font&gt;&lt;/font&gt;&lt;/font&gt;&lt;/font&gt;" style="ellipse;whiteSpace=wrap;html=1;" vertex="1" parent="1">
          <mxGeometry x="1830" y="176.38" width="130" height="60" as="geometry" />
        </mxCell>
        <mxCell id="-4-l-uWwz1xhiP7CuUYI-5" value="" style="endArrow=none;html=1;rounded=0;exitX=0.5;exitY=1;exitDx=0;exitDy=0;" edge="1" parent="1" source="-4-l-uWwz1xhiP7CuUYI-4">
          <mxGeometry width="50" height="50" relative="1" as="geometry">
            <mxPoint x="2159" y="340" as="sourcePoint" />
            <mxPoint x="2010" y="320" as="targetPoint" />
          </mxGeometry>
        </mxCell>
        <mxCell id="-4-l-uWwz1xhiP7CuUYI-6" value="&lt;div&gt;Удаление&amp;nbsp;&lt;/div&gt;&lt;div&gt;отзывов&lt;/div&gt;" style="ellipse;whiteSpace=wrap;html=1;" vertex="1" parent="1">
          <mxGeometry x="2100" y="176.38" width="130" height="60" as="geometry" />
        </mxCell>
        <mxCell id="-4-l-uWwz1xhiP7CuUYI-7" value="" style="endArrow=none;html=1;rounded=0;exitX=0.5;exitY=1;exitDx=0;exitDy=0;" edge="1" parent="1" source="-4-l-uWwz1xhiP7CuUYI-6">
          <mxGeometry width="50" height="50" relative="1" as="geometry">
            <mxPoint x="2180" y="473.25" as="sourcePoint" />
            <mxPoint x="2050" y="320" as="targetPoint" />
          </mxGeometry>
        </mxCell>
        <mxCell id="-4-l-uWwz1xhiP7CuUYI-8" value="&lt;font style=&quot;vertical-align: inherit;&quot;&gt;&lt;font style=&quot;vertical-align: inherit;&quot;&gt;Удаление&amp;nbsp;&lt;/font&gt;&lt;/font&gt;&lt;div&gt;&lt;font style=&quot;vertical-align: inherit;&quot;&gt;&lt;font style=&quot;vertical-align: inherit;&quot;&gt;аккаунта&lt;/font&gt;&lt;/font&gt;&lt;/div&gt;" style="ellipse;whiteSpace=wrap;html=1;" vertex="1" parent="1">
          <mxGeometry x="1795" y="402.75" width="124" height="50" as="geometry" />
        </mxCell>
        <mxCell id="-4-l-uWwz1xhiP7CuUYI-9" value="Создание услуг" style="ellipse;whiteSpace=wrap;html=1;" vertex="1" parent="1">
          <mxGeometry x="1620" y="-40" width="130" height="60" as="geometry" />
        </mxCell>
        <mxCell id="-4-l-uWwz1xhiP7CuUYI-10" value="" style="endArrow=none;html=1;rounded=0;exitX=1;exitY=0.5;exitDx=0;exitDy=0;" edge="1" parent="1" source="-4-l-uWwz1xhiP7CuUYI-9">
          <mxGeometry width="50" height="50" relative="1" as="geometry">
            <mxPoint x="2010" y="230" as="sourcePoint" />
            <mxPoint x="1950" y="-30" as="targetPoint" />
          </mxGeometry>
        </mxCell>
        <mxCell id="-4-l-uWwz1xhiP7CuUYI-11" value="" style="endArrow=none;html=1;rounded=0;exitX=1;exitY=0.5;exitDx=0;exitDy=0;" edge="1" parent="1" source="jY-5jK7i1B_0D9hz5LlO-20">
          <mxGeometry width="50" height="50" relative="1" as="geometry">
            <mxPoint x="1900" y="-40" as="sourcePoint" />
            <mxPoint x="1970" y="-60" as="targetPoint" />
          </mxGeometry>
        </mxCell>
        <mxCell id="-4-l-uWwz1xhiP7CuUYI-12" value="&lt;font style=&quot;vertical-align: inherit;&quot;&gt;&lt;font style=&quot;vertical-align: inherit;&quot;&gt;Удаление услуг&lt;/font&gt;&lt;/font&gt;" style="ellipse;whiteSpace=wrap;html=1;" vertex="1" parent="1">
          <mxGeometry x="1654" y="-200" width="130" height="60" as="geometry" />
        </mxCell>
        <mxCell id="-4-l-uWwz1xhiP7CuUYI-13" value="" style="endArrow=none;html=1;rounded=0;exitX=1;exitY=0.5;exitDx=0;exitDy=0;" edge="1" parent="1" source="-4-l-uWwz1xhiP7CuUYI-12">
          <mxGeometry width="50" height="50" relative="1" as="geometry">
            <mxPoint x="1920" y="-80" as="sourcePoint" />
            <mxPoint x="1980" y="-90" as="targetPoint" />
          </mxGeometry>
        </mxCell>
        <mxCell id="-4-l-uWwz1xhiP7CuUYI-14" value="Создание мастеров" style="ellipse;whiteSpace=wrap;html=1;" vertex="1" parent="1">
          <mxGeometry x="1770" y="-270" width="130" height="60" as="geometry" />
        </mxCell>
        <mxCell id="-4-l-uWwz1xhiP7CuUYI-15" value="" style="endArrow=none;html=1;rounded=0;exitX=0.5;exitY=1;exitDx=0;exitDy=0;" edge="1" parent="1" source="-4-l-uWwz1xhiP7CuUYI-14">
          <mxGeometry width="50" height="50" relative="1" as="geometry">
            <mxPoint x="1850" y="-150" as="sourcePoint" />
            <mxPoint x="1990" y="-100" as="targetPoint" />
          </mxGeometry>
        </mxCell>
        <mxCell id="-4-l-uWwz1xhiP7CuUYI-16" value="Изменение мастеров" style="ellipse;whiteSpace=wrap;html=1;" vertex="1" parent="1">
          <mxGeometry x="1900" y="-300" width="130" height="60" as="geometry" />
        </mxCell>
        <mxCell id="-4-l-uWwz1xhiP7CuUYI-17" value="" style="endArrow=none;html=1;rounded=0;exitX=0.5;exitY=1;exitDx=0;exitDy=0;" edge="1" parent="1" source="-4-l-uWwz1xhiP7CuUYI-16">
          <mxGeometry width="50" height="50" relative="1" as="geometry">
            <mxPoint x="1890" y="-170" as="sourcePoint" />
            <mxPoint x="2010" y="-110" as="targetPoint" />
          </mxGeometry>
        </mxCell>
        <mxCell id="-4-l-uWwz1xhiP7CuUYI-18" value="Удаление мастеров" style="ellipse;whiteSpace=wrap;html=1;" vertex="1" parent="1">
          <mxGeometry x="2037" y="-270" width="130" height="60" as="geometry" />
        </mxCell>
        <mxCell id="-4-l-uWwz1xhiP7CuUYI-19" value="" style="endArrow=none;html=1;rounded=0;exitX=0.5;exitY=1;exitDx=0;exitDy=0;" edge="1" parent="1" source="-4-l-uWwz1xhiP7CuUYI-18">
          <mxGeometry width="50" height="50" relative="1" as="geometry">
            <mxPoint x="2000" y="-140" as="sourcePoint" />
            <mxPoint x="2030" y="-110" as="targetPoint" />
          </mxGeometry>
        </mxCell>
        <mxCell id="-4-l-uWwz1xhiP7CuUYI-20" value="Добавление&amp;nbsp;&lt;div&gt;расписания&amp;nbsp;&lt;span style=&quot;background-color: transparent; color: light-dark(rgb(0, 0, 0), rgb(255, 255, 255));&quot;&gt;мастеров&lt;/span&gt;&lt;/div&gt;" style="ellipse;whiteSpace=wrap;html=1;" vertex="1" parent="1">
          <mxGeometry x="2150" y="-210" width="160" height="60" as="geometry" />
        </mxCell>
        <mxCell id="-4-l-uWwz1xhiP7CuUYI-21" value="" style="endArrow=none;html=1;rounded=0;exitX=0;exitY=0.5;exitDx=0;exitDy=0;" edge="1" parent="1" source="-4-l-uWwz1xhiP7CuUYI-20">
          <mxGeometry width="50" height="50" relative="1" as="geometry">
            <mxPoint x="2152" y="-190" as="sourcePoint" />
            <mxPoint x="2040" y="-90" as="targetPoint" />
          </mxGeometry>
        </mxCell>
        <mxCell id="-4-l-uWwz1xhiP7CuUYI-22" value="Изменение&amp;nbsp;&lt;div&gt;расписания&amp;nbsp;&lt;span style=&quot;background-color: transparent; color: light-dark(rgb(0, 0, 0), rgb(255, 255, 255));&quot;&gt;мастеров&lt;/span&gt;&lt;/div&gt;" style="ellipse;whiteSpace=wrap;html=1;" vertex="1" parent="1">
          <mxGeometry x="2167" y="-140" width="160" height="60" as="geometry" />
        </mxCell>
        <mxCell id="-4-l-uWwz1xhiP7CuUYI-23" value="" style="endArrow=none;html=1;rounded=0;exitX=0;exitY=0.5;exitDx=0;exitDy=0;" edge="1" parent="1" source="-4-l-uWwz1xhiP7CuUYI-22">
          <mxGeometry width="50" height="50" relative="1" as="geometry">
            <mxPoint x="2180" y="-120" as="sourcePoint" />
            <mxPoint x="2040" y="-70" as="targetPoint" />
          </mxGeometry>
        </mxCell>
        <mxCell id="-4-l-uWwz1xhiP7CuUYI-24" value="Удаление&amp;nbsp;&lt;div&gt;расписания&amp;nbsp;&lt;span style=&quot;background-color: transparent; color: light-dark(rgb(0, 0, 0), rgb(255, 255, 255));&quot;&gt;мастеров&lt;/span&gt;&lt;/div&gt;" style="ellipse;whiteSpace=wrap;html=1;" vertex="1" parent="1">
          <mxGeometry x="2180" y="-70" width="160" height="60" as="geometry" />
        </mxCell>
        <mxCell id="-4-l-uWwz1xhiP7CuUYI-25" value="" style="endArrow=none;html=1;rounded=0;exitX=0;exitY=0.5;exitDx=0;exitDy=0;" edge="1" parent="1" source="-4-l-uWwz1xhiP7CuUYI-24">
          <mxGeometry width="50" height="50" relative="1" as="geometry">
            <mxPoint x="2157" y="-70" as="sourcePoint" />
            <mxPoint x="2040" y="-50" as="targetPoint" />
          </mxGeometry>
        </mxCell>
        <mxCell id="-4-l-uWwz1xhiP7CuUYI-26" value="Просмотрр&amp;nbsp;&lt;div&gt;расписания&amp;nbsp;&lt;span style=&quot;background-color: transparent; color: light-dark(rgb(0, 0, 0), rgb(255, 255, 255));&quot;&gt;мастеров&lt;/span&gt;&lt;/div&gt;" style="ellipse;whiteSpace=wrap;html=1;" vertex="1" parent="1">
          <mxGeometry x="2180" y="10" width="160" height="60" as="geometry" />
        </mxCell>
        <mxCell id="-4-l-uWwz1xhiP7CuUYI-27" value="" style="endArrow=none;html=1;rounded=0;exitX=0;exitY=0;exitDx=0;exitDy=0;" edge="1" parent="1" source="-4-l-uWwz1xhiP7CuUYI-26">
          <mxGeometry width="50" height="50" relative="1" as="geometry">
            <mxPoint x="2280" y="-40" as="sourcePoint" />
            <mxPoint x="2070" y="-20" as="targetPoint" />
          </mxGeometry>
        </mxCell>
        <mxCell id="-4-l-uWwz1xhiP7CuUYI-29" value="Просмотр количесвта&amp;nbsp;&lt;div&gt;записей мастеров&lt;/div&gt;" style="ellipse;whiteSpace=wrap;html=1;" vertex="1" parent="1">
          <mxGeometry x="1634" y="30" width="170" height="60" as="geometry" />
        </mxCell>
        <mxCell id="-4-l-uWwz1xhiP7CuUYI-30" value="" style="endArrow=none;html=1;rounded=0;exitX=1;exitY=0.453;exitDx=0;exitDy=0;exitPerimeter=0;" edge="1" parent="1" source="-4-l-uWwz1xhiP7CuUYI-29">
          <mxGeometry width="50" height="50" relative="1" as="geometry">
            <mxPoint x="1790" y="10" as="sourcePoint" />
            <mxPoint x="1940" as="targetPoint" />
          </mxGeometry>
        </mxCell>
        <mxCell id="-4-l-uWwz1xhiP7CuUYI-31" value="" style="endArrow=none;html=1;rounded=0;exitX=0.5;exitY=0;exitDx=0;exitDy=0;" edge="1" parent="1" source="-4-l-uWwz1xhiP7CuUYI-4">
          <mxGeometry width="50" height="50" relative="1" as="geometry">
            <mxPoint x="1870" y="79" as="sourcePoint" />
            <mxPoint x="1970" y="20" as="targetPoint" />
          </mxGeometry>
        </mxCell>
        <mxCell id="-4-l-uWwz1xhiP7CuUYI-32" value="" style="endArrow=none;html=1;rounded=0;exitX=0.5;exitY=0;exitDx=0;exitDy=0;" edge="1" parent="1" source="dGz35D6ZcCfQ526eEBFx-14">
          <mxGeometry width="50" height="50" relative="1" as="geometry">
            <mxPoint x="1920" y="256" as="sourcePoint" />
            <mxPoint x="1940" y="20" as="targetPoint" />
          </mxGeometry>
        </mxCell>
        <mxCell id="-4-l-uWwz1xhiP7CuUYI-34" value="" style="endArrow=none;html=1;rounded=0;exitX=0.5;exitY=0;exitDx=0;exitDy=0;" edge="1" parent="1" source="-4-l-uWwz1xhiP7CuUYI-6">
          <mxGeometry width="50" height="50" relative="1" as="geometry">
            <mxPoint x="1940" y="226" as="sourcePoint" />
            <mxPoint x="2060" y="10" as="targetPoint" />
          </mxGeometry>
        </mxCell>
        <mxCell id="-4-l-uWwz1xhiP7CuUYI-35" value="Просмотрр&amp;nbsp;&lt;div&gt;мастеров&lt;/div&gt;" style="ellipse;whiteSpace=wrap;html=1;" vertex="1" parent="1">
          <mxGeometry x="1750" y="522.5" width="140" height="55" as="geometry" />
        </mxCell>
        <mxCell id="-4-l-uWwz1xhiP7CuUYI-36" value="" style="endArrow=none;html=1;rounded=0;exitX=0.5;exitY=0;exitDx=0;exitDy=0;" edge="1" parent="1" source="-4-l-uWwz1xhiP7CuUYI-35">
          <mxGeometry width="50" height="50" relative="1" as="geometry">
            <mxPoint x="2150" y="627" as="sourcePoint" />
            <mxPoint x="2000" y="440" as="targetPoint" />
          </mxGeometry>
        </mxCell>
        <mxCell id="-4-l-uWwz1xhiP7CuUYI-37" value="Просмотр услуг" style="ellipse;whiteSpace=wrap;html=1;" vertex="1" parent="1">
          <mxGeometry x="1888.5" y="577.5" width="140" height="55" as="geometry" />
        </mxCell>
        <mxCell id="-4-l-uWwz1xhiP7CuUYI-38" value="" style="endArrow=none;html=1;rounded=0;exitX=0.5;exitY=0;exitDx=0;exitDy=0;" edge="1" parent="1" source="-4-l-uWwz1xhiP7CuUYI-37">
          <mxGeometry width="50" height="50" relative="1" as="geometry">
            <mxPoint x="1910" y="563" as="sourcePoint" />
            <mxPoint x="2020" y="450" as="targetPoint" />
          </mxGeometry>
        </mxCell>
        <mxCell id="-4-l-uWwz1xhiP7CuUYI-40" value="" style="endArrow=none;html=1;rounded=0;exitX=0.5;exitY=1;exitDx=0;exitDy=0;" edge="1" parent="1" source="-4-l-uWwz1xhiP7CuUYI-35">
          <mxGeometry width="50" height="50" relative="1" as="geometry">
            <mxPoint x="1860" y="573" as="sourcePoint" />
            <mxPoint x="2000" y="820" as="targetPoint" />
          </mxGeometry>
        </mxCell>
        <mxCell id="-4-l-uWwz1xhiP7CuUYI-41" value="" style="endArrow=none;html=1;rounded=0;entryX=0.5;entryY=1;entryDx=0;entryDy=0;" edge="1" parent="1" target="-4-l-uWwz1xhiP7CuUYI-37">
          <mxGeometry width="50" height="50" relative="1" as="geometry">
            <mxPoint x="2030" y="800" as="sourcePoint" />
            <mxPoint x="2180" y="740" as="targetPoint" />
          </mxGeometry>
        </mxCell>
        <mxCell id="-4-l-uWwz1xhiP7CuUYI-42" value="" style="endArrow=none;html=1;rounded=0;entryX=0.5;entryY=1;entryDx=0;entryDy=0;" edge="1" parent="1" target="SDVWNfVXVD3PvBdz0h2N-19">
          <mxGeometry width="50" height="50" relative="1" as="geometry">
            <mxPoint x="2060" y="800" as="sourcePoint" />
            <mxPoint x="1980" y="690" as="targetPoint" />
          </mxGeometry>
        </mxCell>
        <mxCell id="-4-l-uWwz1xhiP7CuUYI-43" value="" style="endArrow=none;html=1;rounded=0;entryX=0.5;entryY=1;entryDx=0;entryDy=0;" edge="1" parent="1" target="b1CO219NzaIOe3JNRqPo-9">
          <mxGeometry width="50" height="50" relative="1" as="geometry">
            <mxPoint x="2080" y="820" as="sourcePoint" />
            <mxPoint x="2280" y="600" as="targetPoint" />
          </mxGeometry>
        </mxCell>
        <mxCell id="-4-l-uWwz1xhiP7CuUYI-44" value="Регистрация" style="ellipse;whiteSpace=wrap;html=1;" vertex="1" parent="1">
          <mxGeometry x="2190" y="770" width="140" height="55" as="geometry" />
        </mxCell>
        <mxCell id="-4-l-uWwz1xhiP7CuUYI-45" value="" style="endArrow=none;html=1;rounded=0;entryX=0;entryY=0.5;entryDx=0;entryDy=0;" edge="1" parent="1" target="-4-l-uWwz1xhiP7CuUYI-44">
          <mxGeometry width="50" height="50" relative="1" as="geometry">
            <mxPoint x="2090" y="830" as="sourcePoint" />
            <mxPoint x="2150" y="700" as="targetPoint" />
          </mxGeometry>
        </mxCell>
        <mxCell id="-4-l-uWwz1xhiP7CuUYI-46" value="Авторизация" style="ellipse;whiteSpace=wrap;html=1;" vertex="1" parent="1">
          <mxGeometry x="2190" y="860" width="140" height="55" as="geometry" />
        </mxCell>
        <mxCell id="-4-l-uWwz1xhiP7CuUYI-47" value="" style="endArrow=none;html=1;rounded=0;entryX=0;entryY=0.5;entryDx=0;entryDy=0;" edge="1" parent="1" target="-4-l-uWwz1xhiP7CuUYI-46">
          <mxGeometry width="50" height="50" relative="1" as="geometry">
            <mxPoint x="2090" y="860" as="sourcePoint" />
            <mxPoint x="2210" y="820" as="targetPoint" />
          </mxGeometry>
        </mxCell>
        <mxCell id="-4-l-uWwz1xhiP7CuUYI-50" value="&amp;nbsp;" style="text;html=1;align=center;verticalAlign=middle;whiteSpace=wrap;rounded=0;" vertex="1" parent="1">
          <mxGeometry x="1960" y="-490" width="60" height="30" as="geometry" />
        </mxCell>
        <mxCell id="-4-l-uWwz1xhiP7CuUYI-51" value="&amp;nbsp;" style="text;html=1;align=center;verticalAlign=middle;whiteSpace=wrap;rounded=0;" vertex="1" parent="1">
          <mxGeometry x="2670" y="90" width="60" height="30" as="geometry" />
        </mxCell>
        <mxCell id="-4-l-uWwz1xhiP7CuUYI-52" value="&amp;nbsp;" style="text;html=1;align=center;verticalAlign=middle;whiteSpace=wrap;rounded=0;" vertex="1" parent="1">
          <mxGeometry x="1274" y="165" width="60" height="30" as="geometry" />
        </mxCell>
        <mxCell id="-4-l-uWwz1xhiP7CuUYI-53" value="&amp;nbsp;" style="text;html=1;align=center;verticalAlign=middle;whiteSpace=wrap;rounded=0;" vertex="1" parent="1">
          <mxGeometry x="2013.5" y="1050" width="60" height="30" as="geometry" />
        </mxCell>
        <mxCell id="-4-l-uWwz1xhiP7CuUYI-54" value="" style="ellipse;whiteSpace=wrap;html=1;aspect=fixed;" vertex="1" parent="1">
          <mxGeometry x="2310" y="770" width="30" height="30" as="geometry" />
        </mxCell>
        <mxCell id="-4-l-uWwz1xhiP7CuUYI-55" value="22" style="text;html=1;align=center;verticalAlign=middle;whiteSpace=wrap;rounded=0;" vertex="1" parent="1">
          <mxGeometry x="2312.5" y="775" width="25" height="20" as="geometry" />
        </mxCell>
        <mxCell id="-4-l-uWwz1xhiP7CuUYI-57" value="" style="ellipse;whiteSpace=wrap;html=1;aspect=fixed;" vertex="1" parent="1">
          <mxGeometry x="1774" y="20" width="30" height="30" as="geometry" />
        </mxCell>
        <mxCell id="-4-l-uWwz1xhiP7CuUYI-58" value="1" style="text;html=1;align=center;verticalAlign=middle;whiteSpace=wrap;rounded=0;" vertex="1" parent="1">
          <mxGeometry x="1776.5" y="25" width="25" height="20" as="geometry" />
        </mxCell>
        <mxCell id="-4-l-uWwz1xhiP7CuUYI-59" value="" style="ellipse;whiteSpace=wrap;html=1;aspect=fixed;" vertex="1" parent="1">
          <mxGeometry x="1870" y="522.5" width="30" height="30" as="geometry" />
        </mxCell>
        <mxCell id="-4-l-uWwz1xhiP7CuUYI-60" value="18" style="text;html=1;align=center;verticalAlign=middle;whiteSpace=wrap;rounded=0;" vertex="1" parent="1">
          <mxGeometry x="1872.5" y="533.75" width="25" height="7.5" as="geometry" />
        </mxCell>
        <mxCell id="-4-l-uWwz1xhiP7CuUYI-61" value="" style="ellipse;whiteSpace=wrap;html=1;aspect=fixed;" vertex="1" parent="1">
          <mxGeometry x="2008.5" y="570" width="30" height="30" as="geometry" />
        </mxCell>
        <mxCell id="-4-l-uWwz1xhiP7CuUYI-62" value="19" style="text;html=1;align=center;verticalAlign=middle;whiteSpace=wrap;rounded=0;" vertex="1" parent="1">
          <mxGeometry x="2011" y="575" width="25" height="20" as="geometry" />
        </mxCell>
        <mxCell id="-4-l-uWwz1xhiP7CuUYI-63" value="" style="ellipse;whiteSpace=wrap;html=1;aspect=fixed;" vertex="1" parent="1">
          <mxGeometry x="2175" y="577.5" width="30" height="30" as="geometry" />
        </mxCell>
        <mxCell id="-4-l-uWwz1xhiP7CuUYI-64" value="20" style="text;html=1;align=center;verticalAlign=middle;whiteSpace=wrap;rounded=0;" vertex="1" parent="1">
          <mxGeometry x="2177.5" y="582.5" width="25" height="20" as="geometry" />
        </mxCell>
        <mxCell id="-4-l-uWwz1xhiP7CuUYI-65" value="" style="ellipse;whiteSpace=wrap;html=1;aspect=fixed;" vertex="1" parent="1">
          <mxGeometry x="2307.5" y="511.25" width="30" height="30" as="geometry" />
        </mxCell>
        <mxCell id="-4-l-uWwz1xhiP7CuUYI-66" value="21" style="text;html=1;align=center;verticalAlign=middle;whiteSpace=wrap;rounded=0;" vertex="1" parent="1">
          <mxGeometry x="2310" y="516.25" width="25" height="20" as="geometry" />
        </mxCell>
        <mxCell id="-4-l-uWwz1xhiP7CuUYI-67" value="" style="ellipse;whiteSpace=wrap;html=1;aspect=fixed;" vertex="1" parent="1">
          <mxGeometry x="1784" y="230" width="30" height="30" as="geometry" />
        </mxCell>
        <mxCell id="-4-l-uWwz1xhiP7CuUYI-68" value="12" style="text;html=1;align=center;verticalAlign=middle;whiteSpace=wrap;rounded=0;" vertex="1" parent="1">
          <mxGeometry x="1786.5" y="235" width="25" height="20" as="geometry" />
        </mxCell>
        <mxCell id="-4-l-uWwz1xhiP7CuUYI-72" value="" style="ellipse;whiteSpace=wrap;html=1;aspect=fixed;" vertex="1" parent="1">
          <mxGeometry x="1919" y="165" width="30" height="30" as="geometry" />
        </mxCell>
        <mxCell id="-4-l-uWwz1xhiP7CuUYI-73" value="13" style="text;html=1;align=center;verticalAlign=middle;whiteSpace=wrap;rounded=0;" vertex="1" parent="1">
          <mxGeometry x="1921.5" y="170" width="25" height="20" as="geometry" />
        </mxCell>
        <mxCell id="-4-l-uWwz1xhiP7CuUYI-74" value="" style="ellipse;whiteSpace=wrap;html=1;aspect=fixed;" vertex="1" parent="1">
          <mxGeometry x="2060" y="146.38" width="30" height="30" as="geometry" />
        </mxCell>
        <mxCell id="-4-l-uWwz1xhiP7CuUYI-75" value="14" style="text;html=1;align=center;verticalAlign=middle;whiteSpace=wrap;rounded=0;" vertex="1" parent="1">
          <mxGeometry x="2062.5" y="151.38" width="25" height="20" as="geometry" />
        </mxCell>
        <mxCell id="-4-l-uWwz1xhiP7CuUYI-76" value="" style="ellipse;whiteSpace=wrap;html=1;aspect=fixed;" vertex="1" parent="1">
          <mxGeometry x="2215" y="176.38" width="30" height="30" as="geometry" />
        </mxCell>
        <mxCell id="-4-l-uWwz1xhiP7CuUYI-77" value="15" style="text;html=1;align=center;verticalAlign=middle;whiteSpace=wrap;rounded=0;" vertex="1" parent="1">
          <mxGeometry x="2217.5" y="181.38" width="25" height="20" as="geometry" />
        </mxCell>
        <mxCell id="-4-l-uWwz1xhiP7CuUYI-78" value="" style="ellipse;whiteSpace=wrap;html=1;aspect=fixed;" vertex="1" parent="1">
          <mxGeometry x="1724" y="-50" width="30" height="30" as="geometry" />
        </mxCell>
        <mxCell id="-4-l-uWwz1xhiP7CuUYI-79" value="2" style="text;html=1;align=center;verticalAlign=middle;whiteSpace=wrap;rounded=0;" vertex="1" parent="1">
          <mxGeometry x="1726.5" y="-45" width="25" height="20" as="geometry" />
        </mxCell>
        <mxCell id="-4-l-uWwz1xhiP7CuUYI-80" value="" style="ellipse;whiteSpace=wrap;html=1;aspect=fixed;" vertex="1" parent="1">
          <mxGeometry x="1754" y="-125" width="30" height="30" as="geometry" />
        </mxCell>
        <mxCell id="-4-l-uWwz1xhiP7CuUYI-81" value="3" style="text;html=1;align=center;verticalAlign=middle;whiteSpace=wrap;rounded=0;" vertex="1" parent="1">
          <mxGeometry x="1756.5" y="-120" width="25" height="20" as="geometry" />
        </mxCell>
        <mxCell id="-4-l-uWwz1xhiP7CuUYI-82" value="" style="ellipse;whiteSpace=wrap;html=1;aspect=fixed;" vertex="1" parent="1">
          <mxGeometry x="1754" y="-210" width="30" height="30" as="geometry" />
        </mxCell>
        <mxCell id="-4-l-uWwz1xhiP7CuUYI-83" value="4" style="text;html=1;align=center;verticalAlign=middle;whiteSpace=wrap;rounded=0;" vertex="1" parent="1">
          <mxGeometry x="1756.5" y="-205" width="25" height="20" as="geometry" />
        </mxCell>
        <mxCell id="-4-l-uWwz1xhiP7CuUYI-84" value="" style="ellipse;whiteSpace=wrap;html=1;aspect=fixed;" vertex="1" parent="1">
          <mxGeometry x="1858.5" y="-280" width="30" height="30" as="geometry" />
        </mxCell>
        <mxCell id="-4-l-uWwz1xhiP7CuUYI-85" value="5" style="text;html=1;align=center;verticalAlign=middle;whiteSpace=wrap;rounded=0;" vertex="1" parent="1">
          <mxGeometry x="1861" y="-275" width="25" height="20" as="geometry" />
        </mxCell>
        <mxCell id="-4-l-uWwz1xhiP7CuUYI-86" value="" style="ellipse;whiteSpace=wrap;html=1;aspect=fixed;" vertex="1" parent="1">
          <mxGeometry x="1998.5" y="-310" width="30" height="30" as="geometry" />
        </mxCell>
        <mxCell id="-4-l-uWwz1xhiP7CuUYI-87" value="6" style="text;html=1;align=center;verticalAlign=middle;whiteSpace=wrap;rounded=0;" vertex="1" parent="1">
          <mxGeometry x="2001" y="-305" width="25" height="20" as="geometry" />
        </mxCell>
        <mxCell id="-4-l-uWwz1xhiP7CuUYI-88" value="" style="ellipse;whiteSpace=wrap;html=1;aspect=fixed;" vertex="1" parent="1">
          <mxGeometry x="2137" y="-280" width="30" height="30" as="geometry" />
        </mxCell>
        <mxCell id="-4-l-uWwz1xhiP7CuUYI-89" value="7" style="text;html=1;align=center;verticalAlign=middle;whiteSpace=wrap;rounded=0;" vertex="1" parent="1">
          <mxGeometry x="2139.5" y="-275" width="25" height="20" as="geometry" />
        </mxCell>
        <mxCell id="-4-l-uWwz1xhiP7CuUYI-90" value="" style="ellipse;whiteSpace=wrap;html=1;aspect=fixed;" vertex="1" parent="1">
          <mxGeometry x="2277.5" y="-220" width="30" height="30" as="geometry" />
        </mxCell>
        <mxCell id="-4-l-uWwz1xhiP7CuUYI-91" value="8" style="text;html=1;align=center;verticalAlign=middle;whiteSpace=wrap;rounded=0;" vertex="1" parent="1">
          <mxGeometry x="2280" y="-215" width="25" height="20" as="geometry" />
        </mxCell>
        <mxCell id="-4-l-uWwz1xhiP7CuUYI-92" value="" style="ellipse;whiteSpace=wrap;html=1;aspect=fixed;" vertex="1" parent="1">
          <mxGeometry x="2297" y="-140" width="30" height="30" as="geometry" />
        </mxCell>
        <mxCell id="-4-l-uWwz1xhiP7CuUYI-93" value="9" style="text;html=1;align=center;verticalAlign=middle;whiteSpace=wrap;rounded=0;" vertex="1" parent="1">
          <mxGeometry x="2299.5" y="-135" width="25" height="20" as="geometry" />
        </mxCell>
        <mxCell id="-4-l-uWwz1xhiP7CuUYI-94" value="" style="ellipse;whiteSpace=wrap;html=1;aspect=fixed;" vertex="1" parent="1">
          <mxGeometry x="2315" y="-70" width="30" height="30" as="geometry" />
        </mxCell>
        <mxCell id="-4-l-uWwz1xhiP7CuUYI-95" value="10" style="text;html=1;align=center;verticalAlign=middle;whiteSpace=wrap;rounded=0;" vertex="1" parent="1">
          <mxGeometry x="2317.5" y="-65" width="25" height="20" as="geometry" />
        </mxCell>
        <mxCell id="-4-l-uWwz1xhiP7CuUYI-96" value="" style="ellipse;whiteSpace=wrap;html=1;aspect=fixed;" vertex="1" parent="1">
          <mxGeometry x="2324.5" y="10" width="30" height="30" as="geometry" />
        </mxCell>
        <mxCell id="-4-l-uWwz1xhiP7CuUYI-97" value="11" style="text;html=1;align=center;verticalAlign=middle;whiteSpace=wrap;rounded=0;" vertex="1" parent="1">
          <mxGeometry x="2327" y="15" width="25" height="20" as="geometry" />
        </mxCell>
        <mxCell id="-4-l-uWwz1xhiP7CuUYI-98" value="" style="ellipse;whiteSpace=wrap;html=1;aspect=fixed;" vertex="1" parent="1">
          <mxGeometry x="1820" y="320" width="30" height="30" as="geometry" />
        </mxCell>
        <mxCell id="-4-l-uWwz1xhiP7CuUYI-99" value="16" style="text;html=1;align=center;verticalAlign=middle;whiteSpace=wrap;rounded=0;" vertex="1" parent="1">
          <mxGeometry x="1822.5" y="325" width="25" height="20" as="geometry" />
        </mxCell>
        <mxCell id="-4-l-uWwz1xhiP7CuUYI-100" value="" style="ellipse;whiteSpace=wrap;html=1;aspect=fixed;" vertex="1" parent="1">
          <mxGeometry x="1886" y="395.13" width="30" height="30" as="geometry" />
        </mxCell>
        <mxCell id="-4-l-uWwz1xhiP7CuUYI-101" value="17" style="text;html=1;align=center;verticalAlign=middle;whiteSpace=wrap;rounded=0;" vertex="1" parent="1">
          <mxGeometry x="1888.5" y="400.13" width="25" height="20" as="geometry" />
        </mxCell>
        <mxCell id="-4-l-uWwz1xhiP7CuUYI-102" value="" style="ellipse;whiteSpace=wrap;html=1;aspect=fixed;" vertex="1" parent="1">
          <mxGeometry x="2310" y="860" width="30" height="30" as="geometry" />
        </mxCell>
        <mxCell id="-4-l-uWwz1xhiP7CuUYI-103" value="23" style="text;html=1;align=center;verticalAlign=middle;whiteSpace=wrap;rounded=0;" vertex="1" parent="1">
          <mxGeometry x="2312.5" y="865" width="25" height="20" as="geometry" />
        </mxCell>
      </root>
    </mxGraphModel>
  </diagram>
  <diagram id="OUFQ0xLNh5VnXpe9QkfP" name="Страница — 2">
    <mxGraphModel dx="1290" dy="557" grid="1" gridSize="10" guides="1" tooltips="1" connect="1" arrows="1" fold="1" page="1" pageScale="1" pageWidth="827" pageHeight="1169" math="0" shadow="0">
      <root>
        <mxCell id="0" />
        <mxCell id="1" parent="0" />
      </root>
    </mxGraphModel>
  </diagram>
</mxfile>
